<?xml version="1.0" standalone="no"?>
<!DOCTYPE svg PUBLIC "-//W3C//DTD SVG 20010904//EN"
 "http://www.w3.org/TR/2001/REC-SVG-20010904/DTD/svg10.dtd">
<svg version="1.0" xmlns="http://www.w3.org/2000/svg"
 width="1024.000000pt" height="1024.000000pt" viewBox="0 0 1024.000000 1024.000000"
 preserveAspectRatio="xMidYMid meet">

<g transform="translate(0.000000,1024.000000) scale(0.100000,-0.100000)"
fill="#00a3e4" stroke="none">
<path d="M5003 7940 c-63 -38 -63 -37 -63 -483 l0 -403 -62 -13 c-200 -41
-390 -180 -511 -373 -66 -106 -93 -179 -147 -408 -82 -343 -140 -570 -166
-642 -59 -163 -123 -267 -310 -503 -221 -278 -304 -404 -372 -565 -90 -211
-132 -418 -132 -649 0 -182 16 -291 66 -441 204 -617 744 -1049 1469 -1176
141 -25 478 -25 632 -1 334 52 690 199 926 382 197 153 371 356 470 550 129
251 184 496 174 765 -6 160 -29 283 -78 432 -78 232 -162 370 -422 693 -201
250 -272 368 -331 549 -14 43 -66 240 -116 439 -50 199 -102 391 -115 427 -37
98 -92 184 -169 267 -122 131 -269 218 -429 252 -96 21 -94 16 -96 174 l-1 97
89 0 c256 0 432 93 522 275 33 66 43 98 46 152 5 64 4 70 -22 95 -34 34 -75
42 -178 35 -157 -11 -302 -111 -392 -272 -20 -36 -40 -77 -44 -93 -5 -16 -11
46 -16 165 -6 161 -10 196 -26 222 -41 67 -132 91 -196 51z"/>
</g>
</svg>
